<?xml version="1.0" encoding="UTF-8"?>
<!DOCTYPE svg PUBLIC "-//W3C//DTD SVG 1.1//EN" "http://www.w3.org/Graphics/SVG/1.1/DTD/svg11.dtd">
<svg version="1.1" xmlns="http://www.w3.org/2000/svg" xmlns:xlink="http://www.w3.org/1999/xlink" x="0" y="0" width="260" height="442" viewBox="0, 0, 260, 442">
  <g id="Layer_1">
    <path d="M109.115,299.907 L83.589,299.907 C79.965,296.573 76.72,292.812 75.889,290.843 C75.886,290.529 75.884,290.174 75.881,289.78 C75.811,280.361 75.603,251.698 57.482,222.167 C55.471,218.891 53.016,215.314 50.416,211.528 C34.519,188.38 10.497,153.397 25.526,100.987 C35.204,67.238 56.502,47.902 72.664,37.623 C90.587,26.224 112.241,19.42 130.589,19.42 C148.942,19.42 170.605,26.225 188.536,37.624 C204.707,47.904 226.014,67.241 235.691,100.987 C251.306,155.441 225.889,193.474 210.704,216.198 C208.777,219.081 206.958,221.803 205.39,224.308 C190.093,248.734 193.138,272.921 194.602,284.544 C194.725,285.522 194.872,286.685 194.943,287.408 C194.145,289.884 190.565,295.087 186.466,299.907 L160.076,299.907 C160.076,302.538 160.077,304.96 160.077,307.04 C171.85,306.919 183.742,306.672 195.7,306.27 C200.8,300.142 206.011,292.491 206.154,287.985 C206.182,287.072 205.954,285.254 205.688,283.148 C204.386,272.808 201.675,251.289 214.859,230.237 C216.339,227.875 218.114,225.219 219.994,222.407 C236.256,198.071 263.475,157.341 246.431,97.907 C227.567,32.124 166.819,8.246 130.589,8.246 C94.375,8.246 33.65,32.124 14.786,97.907 C-1.696,155.38 25.16,194.487 41.206,217.853 C43.831,221.677 46.098,224.979 47.959,228.011 C64.453,254.891 64.644,281.212 64.708,289.861 C64.714,290.655 64.718,291.311 64.733,291.818 C64.858,295.759 69.067,301.241 73.606,305.81 C85.24,306.24 97.199,306.584 109.417,306.812 L109.115,299.907" fill="#EEB15E"/>
    <path d="M180.332,284.647 C178.731,271.637 176.172,244.258 193.376,216.788 C195.061,214.097 196.936,211.292 198.919,208.323 C213.634,186.305 235.871,153.03 222.067,104.893 C213.615,75.419 195.033,58.548 180.931,49.585 C165.416,39.722 146.125,33.593 130.589,33.593 C115.06,33.593 95.778,39.72 80.27,49.582 C66.177,58.545 47.603,75.417 39.149,104.893 C25.962,150.882 46.849,181.296 62.099,203.503 C64.8,207.435 67.351,211.149 69.562,214.753 C87.631,244.201 89.709,272.641 90.001,285.734 L108.495,285.734 L107.595,265.168 C107.224,260.488 109.982,257.481 112.201,255.065 C113.445,253.711 114.328,252.698 114.663,251.746 C114.693,251.182 114.685,250.623 114.636,250.075 C113.416,247.711 112.234,245.508 111.132,243.453 C106.088,234.053 102.755,227.843 104.66,223.003 C105.55,220.74 107.552,218.972 110.837,217.522 C110.911,216.984 110.982,216.455 111.054,215.944 C111.503,212.687 111.894,209.875 111.47,208.773 C109.831,204.51 69.394,112.288 68.985,111.355 C73,105.31 83.817,107.713 94.734,110.278 C96.054,110.587 97.381,110.898 98.703,111.196 C97.788,107.918 98.189,104.02 98.545,101.858 L98.571,101.698 L99.567,101.781 C99.565,101.808 99.555,101.89 99.533,102.021 C99.173,104.205 98.749,108.285 99.816,111.442 C99.998,111.481 100.177,111.521 100.357,111.56 C100.287,109.708 100.568,108.355 101.325,107.702 C103.044,106.217 104.398,106.878 105.05,107.405 C106.347,108.447 107.14,110.741 107.138,112.775 C108.519,112.952 109.843,113.064 111.075,113.081 C118.622,113.172 132.959,111.703 144.499,110.519 C146.8,110.284 149.016,110.058 151.09,109.852 C151.452,108.839 151.989,107.951 152.667,107.405 C153.318,106.877 154.672,106.216 156.393,107.702 C156.788,108.043 157.055,108.584 157.223,109.279 C157.634,109.245 158.033,109.21 158.417,109.181 C158.779,106.528 158.461,103.708 158.185,102.021 C158.163,101.89 158.151,101.808 158.149,101.781 L159.147,101.711 L159.171,101.858 C159.453,103.572 159.768,106.379 159.429,109.102 C161.318,108.961 162.811,108.888 163.75,108.907 C166.075,108.974 169.463,108.619 172.75,108.279 C180.483,107.482 185.093,106.498 186.688,109.477 C180.638,126.202 153.708,209.769 153.398,213.497 L153.368,213.865 C153.293,214.735 153.235,215.43 153.204,216.963 C155.474,217.705 157.413,219.102 158.215,222.496 C159.081,226.158 156.848,231.979 154.689,237.609 C153.044,241.896 151.23,246.638 151.347,249.379 C151.46,249.983 151.625,250.53 151.832,251.03 C152.752,252.258 153.779,253.175 154.772,254.061 C157.505,256.497 160.086,258.798 160.079,266.415 C160.075,270.141 160.074,277.707 160.075,285.734 L179.577,285.734 C179.854,285.345 180.106,284.981 180.332,284.647" fill="#EEB15E"/>
    <path d="M103.247,116.43 C102.753,116.269 102.306,116.062 101.898,115.817 C104.209,126.345 112.23,145.549 118.8,159.498 L140.447,159.498 C146.586,145.492 154.033,126.193 156.015,115.693 C155.557,115.993 155.044,116.243 154.47,116.43 C153,116.91 151.779,116.487 151.118,115.268 C150.506,114.14 150.446,112.453 150.795,110.883 C148.837,111.079 146.755,111.293 144.601,111.514 C132.828,112.722 119.534,114.084 111.819,114.084 C111.56,114.084 111.308,114.083 111.062,114.08 C109.806,114.064 108.462,113.951 107.064,113.774 C106.982,114.327 106.832,114.839 106.599,115.268 C105.937,116.489 104.712,116.909 103.247,116.43" fill="#FAE938"/>
    <path d="M106.127,112.631 C106.095,110.931 105.452,109.011 104.423,108.185 C103.683,107.588 102.883,107.677 101.98,108.458 C101.385,108.97 101.181,110.124 101.277,111.757 C102.939,112.105 104.564,112.401 106.127,112.631" fill="#FAE938"/>
    <path d="M154.16,115.48 C155.007,115.203 155.703,114.761 156.268,114.201 C156.5,112.638 156.573,111.336 156.467,110.339 C155.056,110.465 153.503,110.615 151.855,110.778 C151.474,112.204 151.46,113.803 151.997,114.792 C152.431,115.589 153.137,115.814 154.16,115.48" fill="#FAE938"/>
    <path d="M100.428,112.598 L100.289,112.568 C100.344,112.676 100.394,112.786 100.453,112.89 C100.443,112.789 100.437,112.697 100.428,112.598" fill="#FAE938"/>
    <path d="M158.241,110.187 C157.962,110.209 157.679,110.233 157.386,110.258 C157.454,110.961 157.449,111.773 157.379,112.677 C157.778,111.922 158.052,111.073 158.241,110.187" fill="#FAE938"/>
    <path d="M117.652,165.498 C115.996,165.498 114.652,164.155 114.652,162.498 C114.652,160.841 115.996,159.498 117.652,159.498 L117.692,159.498 C114.638,152.972 103.105,127.803 100.757,114.931 C100.015,114.201 99.477,113.296 99.082,112.306 C97.559,111.968 96.027,111.609 94.506,111.252 C84.85,108.983 74.894,106.655 70.859,110.647 C72.97,115.46 111.691,203.776 113.337,208.056 C113.945,209.638 113.563,212.398 113.035,216.219 C113.013,216.369 112.992,216.527 112.97,216.682 L113.134,216.62 C117.988,214.965 121.153,213.496 123.402,212.273 L123.402,165.498 L117.652,165.498" fill="#FAE938"/>
    <path d="M131.839,228.08 C127.428,228.08 123.839,231.669 123.839,236.08 C123.839,240.491 127.428,244.08 131.839,244.08 C136.25,244.08 139.839,240.491 139.839,236.08 C139.839,231.669 136.25,228.08 131.839,228.08" fill="#FAE938"/>
    <path d="M127.402,165.498 L127.402,209.86 C129.029,208.848 130.316,208.205 132.527,208.205 C133.987,208.205 135.383,208.734 136.902,209.593 L136.902,165.498 L127.402,165.498" fill="#FAE938"/>
    <path d="M151.406,213.331 C151.766,208.997 179.229,124.28 184.748,108.962 C182.887,108.241 177.176,108.829 172.852,109.274 C169.378,109.632 166.102,109.966 163.722,109.907 C162.777,109.879 161.234,109.956 159.27,110.106 C158.937,111.86 158.292,113.517 157.139,114.747 C155.207,127.565 144.388,152.959 141.541,159.498 L146.027,159.498 C147.684,159.498 149.027,160.841 149.027,162.498 C149.027,164.155 147.684,165.498 146.027,165.498 L140.902,165.498 L140.902,212.22 L140.964,212.264 C141.887,212.911 142.889,213.613 143.994,214.35 C145.701,215.487 147.763,215.847 149.76,216.193 C150.245,216.277 150.732,216.363 151.215,216.46 C151.249,215.176 151.305,214.511 151.375,213.696 L151.406,213.331" fill="#FAE938"/>
    <path d="M105.72,114.792 C105.896,114.467 105.998,114.063 106.063,113.632 C104.546,113.412 102.977,113.127 101.373,112.797 C101.431,113.286 101.503,113.795 101.603,114.348 C102.14,114.838 102.785,115.227 103.557,115.48 C104.58,115.814 105.287,115.589 105.72,114.792" fill="#FAE938"/>
    <path d="M155.738,108.458 C155.226,108.017 154.748,107.795 154.294,107.795 C153.947,107.795 153.615,107.925 153.293,108.185 C152.857,108.536 152.497,109.096 152.213,109.743 C153.655,109.602 155.015,109.474 156.273,109.361 C156.146,108.971 155.972,108.662 155.738,108.458" fill="#FAE938"/>
    <path d="M141.609,257.82 L142.359,311.34 L138.522,311.34 L138.022,257.84 L141.609,257.82 z M124.527,311.34 L124.527,257.82 L128.152,257.82 L128.652,311.32 L124.527,311.34 z M111.945,258.397 C110.518,260.187 109.371,262.276 109.589,265.044 L111.693,313.08 L158.079,313.08 C158.077,307.043 158.07,275.444 158.079,266.413 C158.083,262.328 157.324,260.055 156.147,258.378 C132.919,247.469 117.644,254.265 111.945,258.397" fill="#FAE938"/>
    <path d="M131.839,246.08 C126.326,246.08 121.839,241.594 121.839,236.08 C121.839,230.566 126.326,226.08 131.839,226.08 C137.353,226.08 141.839,230.566 141.839,236.08 C141.839,241.594 137.353,246.08 131.839,246.08 M152.822,236.893 C154.872,231.547 156.992,226.018 156.268,222.957 C155.38,219.2 152.879,218.766 149.417,218.163 C147.319,217.799 144.943,217.387 142.884,216.014 C141.766,215.268 140.751,214.557 139.818,213.901 C136.756,211.756 134.545,210.205 132.527,210.205 C130.583,210.205 129.697,210.768 127.756,212.002 C125.4,213.501 121.836,215.767 113.779,218.514 C109.679,219.911 107.373,221.57 106.521,223.735 C104.956,227.713 108.285,233.919 112.894,242.508 C113.492,243.621 114.113,244.78 114.75,245.982 C121.933,250.022 137.981,250.59 150.127,244.521 C150.782,242.223 151.77,239.638 152.822,236.893" fill="#FAE938"/>
    <path d="M185.603,334.092 C170.632,334.922 156.367,335.565 142.842,336.025 C142.944,337.505 143.418,341.272 145.138,343.671 C158.276,343.319 171.065,342.822 182.946,342.189 C185.361,340.148 185.648,336.236 185.603,334.092" fill="#C6C9CA"/>
    <path d="M181.067,358.852 C182.699,357.673 183.373,355.712 183.605,353.875 C171.448,354.508 158.831,354.994 146.046,355.331 C146.451,356.734 147.174,358.66 148.25,360.274 C159.102,359.902 170.113,359.426 181.067,358.852" fill="#C6C9CA"/>
    <path d="M106.819,344.267 C108.857,342.258 108.605,338.696 108.292,336.813 C104.218,336.855 100.223,336.879 96.329,336.879 C93.694,336.879 91.104,336.869 88.553,336.85 C87.843,338.748 90.218,342.435 94.089,344.271 C98.298,344.286 102.544,344.285 106.819,344.267" fill="#C6C9CA"/>
    <path d="M92.13,355.827 C93.437,357.657 95.112,359.786 96.522,361.249 C101.062,361.243 105.712,361.214 110.466,361.158 C111.37,359.524 111.419,357.441 111.263,355.863 C108.958,355.873 106.654,355.88 104.357,355.88 C100.258,355.88 96.185,355.859 92.13,355.827" fill="#C6C9CA"/>
    <path d="M181.859,385.833 C170.571,386.427 158.917,386.894 147.132,387.233 C147.434,388.81 148.205,391.82 149.422,394.182 C158.848,393.855 168.381,393.448 177.924,392.961 C180.105,391.105 181.288,387.931 181.859,385.833" fill="#C6C9CA"/>
    <path d="M112.554,387.846 C109.129,387.868 105.713,387.881 102.313,387.881 C98.292,387.881 94.302,387.86 90.335,387.828 C91.48,389.688 93.904,392.984 95.903,395.136 C101.063,395.141 106.332,395.116 111.71,395.057 C113.263,392.818 112.855,389.406 112.554,387.846" fill="#C6C9CA"/>
    <path d="M81.158,349.597 C82.612,349.783 83.757,350.591 84.471,351.845 C86.433,351.783 153.837,352.427 183.678,350.869 C185.468,350.717 187.031,350.592 187.154,348.647 C186.932,347.321 187.081,346.01 187.289,344.955 C160.864,346.463 129.398,347.283 99.56,347.283 C92.463,347.283 85.469,347.236 78.645,347.142 C78.468,347.352 78.349,347.583 78.396,347.814 C78.522,348.429 79.553,349.39 81.158,349.597" fill="#C6C9CA"/>
    <path d="M187.247,376.523 C183.867,376.721 180.445,376.922 176.962,377.129 C148.769,378.799 117.169,380.67 88.368,380.67 C85.437,380.67 82.542,380.648 79.678,380.607 C79.684,380.819 79.733,381.028 79.834,381.231 C80.204,381.984 81.166,382.614 82.474,382.958 L82.96,383.087 L83.329,383.431 C83.686,383.765 83.955,384.231 84.16,384.765 C118.144,385.192 154.806,384.395 187.837,382.502 C187.199,380.821 187.089,378.388 187.247,376.523" fill="#C6C9CA"/>
    <path d="M91.217,371.005 C92.53,372.977 94.654,375.78 96.401,377.622 C100.9,377.571 105.451,377.482 110.035,377.36 C111.492,375.494 111.445,372.698 111.203,370.884 C105.574,370.975 99.955,371.027 94.376,371.027 C93.316,371.027 92.274,371.008 91.217,371.005" fill="#C6C9CA"/>
    <path d="M115.277,424.709 C121.152,427.128 124.029,428.408 125.515,429.208 L125.513,429.08 L149.639,428.955 L149.64,429.059 C151.14,428.207 154.091,426.805 160.248,424.074 L115.277,424.709" fill="#C6C9CA"/>
    <path d="M133.342,319.695 C108.285,319.695 85.264,319.089 78.402,318.891 L78.402,332.365 C80.115,332.522 81.454,333.011 82.384,333.781 C112.3,334.202 148.43,333.22 189.788,330.852 C189.889,329.991 190.193,329.008 190.855,327.913 C191.806,323.971 191.759,320.16 191.612,317.989 C177.685,319.121 158.099,319.695 133.342,319.695" fill="#C6C9CA"/>
    <path d="M148.516,375.749 C158.154,375.236 167.651,374.675 176.785,374.134 C178.402,374.038 179.998,373.943 181.594,373.85 C183.326,371.926 182.855,369.07 182.618,368.066 C170.833,368.727 158.447,369.361 145.798,369.874 C146.125,371.224 147.008,373.749 148.516,375.749" fill="#C6C9CA"/>
    <path d="M187.547,396.308 C187.504,396.092 187.463,395.796 187.431,395.454 C156.305,397.212 124.83,398.14 96.834,398.14 C92.565,398.14 88.381,398.118 84.288,398.074 C89.757,404.064 101.719,416.331 106.17,418.604 L107.9,419.811 L165.352,419.001 L166.96,418.036 C170.36,417.033 184.828,401.219 187.762,397.092 C187.675,396.852 187.604,396.591 187.547,396.308" fill="#C6C9CA"/>
    <path d="M82.71,366.503 L83.66,366.714 L84.08,367.59 C84.128,367.692 84.176,367.818 84.222,367.963 C118.468,368.36 154.952,366.644 186.653,364.834 C186.302,363.793 186.151,362.641 186.22,361.58 C154.784,363.315 122.54,364.252 94.868,364.252 C89.53,364.252 84.372,364.217 79.413,364.146 C79.394,364.356 79.415,364.565 79.525,364.773 C79.922,365.511 81.083,366.141 82.71,366.503" fill="#C6C9CA"/>
    <path d="M219.994,222.407 C218.114,225.219 216.339,227.875 214.859,230.237 C201.675,251.289 204.385,272.808 205.688,283.148 C205.954,285.254 206.182,287.072 206.154,287.985 C206.011,292.491 200.799,300.142 195.7,306.27 C183.862,306.668 172.089,306.913 160.431,307.035 C160.431,304.948 160.075,285.734 160.075,285.734 C160.074,277.707 160.075,270.141 160.079,266.415 C160.086,258.798 157.505,256.497 154.772,254.061 C153.779,253.175 152.752,252.258 151.832,251.03 C151.625,250.53 151.46,249.983 151.348,249.379 C151.23,246.637 153.044,241.896 154.689,237.609 C156.848,231.979 159.081,226.158 158.215,222.496 C157.413,219.102 155.474,217.705 153.204,216.964 C153.235,215.429 153.293,214.735 153.368,213.865 L153.398,213.497 C153.708,209.769 180.639,126.201 186.688,109.477 C185.093,106.498 180.483,107.483 172.75,108.28 C169.463,108.618 166.075,108.973 163.75,108.907 C162.81,108.887 161.318,108.962 159.429,109.102 C159.767,106.379 159.453,103.573 159.171,101.859 L159.147,101.712 L158.149,101.781 C158.151,101.807 158.163,101.889 158.184,102.021 C158.461,103.708 158.779,106.528 158.417,109.18 C158.033,109.211 157.634,109.244 157.223,109.279 C157.056,108.584 156.788,108.043 156.392,107.701 C154.672,106.217 153.318,106.878 152.667,107.405 C151.989,107.95 151.452,108.839 151.09,109.852 C149.016,110.057 146.8,110.283 144.499,110.519 C132.959,111.702 118.622,113.173 111.075,113.08 C109.843,113.064 108.519,112.951 107.138,112.775 C107.14,110.741 106.347,108.448 105.05,107.405 C104.398,106.879 103.044,106.217 101.325,107.701 C100.569,108.355 100.287,109.708 100.357,111.559 C100.177,111.521 99.998,111.482 99.817,111.442 C98.749,108.284 99.174,104.204 99.533,102.021 C99.555,101.889 99.566,101.807 99.568,101.781 L98.571,101.699 L98.546,101.859 C98.189,104.02 97.788,107.919 98.703,111.197 C97.382,110.899 96.054,110.588 94.735,110.278 C83.818,107.713 73,105.31 68.986,111.356 C69.394,112.287 109.831,204.511 111.47,208.773 C111.892,209.875 111.503,212.687 111.054,215.944 C110.983,216.454 110.911,216.984 110.837,217.521 C107.552,218.971 105.55,220.74 104.66,223.003 C102.755,227.843 106.089,234.053 111.132,243.453 C112.234,245.508 113.416,247.711 114.636,250.075 C114.683,250.623 114.694,251.182 114.663,251.746 C114.328,252.698 113.445,253.71 112.201,255.065 C109.983,257.481 107.222,260.488 107.595,265.167 L108.495,285.734 L108.62,306.796 C96.681,306.567 84.986,306.23 73.605,305.81 C69.067,301.241 64.858,295.759 64.733,291.818 C64.718,291.311 64.714,290.655 64.708,289.861 C64.644,281.212 64.453,254.891 47.958,228.011 C46.098,224.979 43.831,221.677 41.206,217.853 C25.16,194.487 -1.695,155.38 14.786,97.907 C33.65,32.124 94.375,8.246 130.589,8.246 C166.819,8.246 227.567,32.124 246.431,97.907 C263.475,157.341 236.256,198.071 219.994,222.407 M156.147,258.378 C157.324,260.054 158.083,262.328 158.079,266.413 C158.07,275.444 158.077,307.043 158.079,313.08 L111.693,313.08 L109.591,265.044 C109.371,262.276 110.517,260.187 111.945,258.397 C117.644,254.264 132.919,247.469 156.147,258.378 M113.78,218.512 C121.837,215.766 125.399,213.501 127.757,212.002 C129.698,210.768 130.583,210.205 132.527,210.205 C134.545,210.205 136.756,211.756 139.817,213.901 C140.751,214.556 141.766,215.267 142.884,216.013 C144.942,217.387 147.319,217.799 149.417,218.163 C152.879,218.766 155.38,219.2 156.268,222.957 C156.992,226.018 154.872,231.547 152.822,236.893 C151.77,239.637 150.782,242.223 150.127,244.521 C137.981,250.59 121.931,250.022 114.75,245.982 C114.113,244.78 113.492,243.621 112.894,242.508 C108.286,233.919 104.956,227.713 106.521,223.735 C107.373,221.57 109.679,219.911 113.78,218.512 M101.278,111.758 C101.181,110.124 101.386,108.97 101.978,108.458 C102.884,107.677 103.683,107.588 104.423,108.184 C105.452,109.011 106.095,110.931 106.127,112.631 C104.564,112.401 102.939,112.105 101.278,111.758 M101.603,114.348 C101.503,113.795 101.431,113.285 101.373,112.797 C102.976,113.127 104.546,113.411 106.062,113.632 C105.998,114.062 105.896,114.467 105.72,114.792 C105.288,115.589 104.58,115.814 103.556,115.48 C102.785,115.227 102.14,114.838 101.603,114.348 M136.902,209.593 C135.383,208.734 133.987,208.205 132.527,208.205 C130.316,208.205 129.029,208.847 127.402,209.86 L127.402,165.498 L136.902,165.498 L136.902,209.593 z M159.27,110.106 C161.234,109.956 162.777,109.879 163.723,109.907 C166.102,109.966 169.378,109.632 172.852,109.274 C177.175,108.828 182.887,108.24 184.748,108.962 C179.229,124.28 151.766,208.997 151.406,213.331 L151.375,213.696 C151.306,214.511 151.249,215.176 151.215,216.46 C150.732,216.363 150.245,216.277 149.759,216.193 C147.763,215.846 145.701,215.487 143.994,214.349 C142.89,213.613 141.887,212.911 140.964,212.263 L140.902,212.219 L140.902,165.498 L146.027,165.498 C147.684,165.498 149.027,164.155 149.027,162.498 C149.027,160.841 147.684,159.498 146.027,159.498 L141.541,159.498 C144.388,152.959 155.207,127.565 157.14,114.746 C158.292,113.516 158.937,111.86 159.27,110.106 M157.387,110.259 C157.681,110.233 157.962,110.21 158.241,110.187 C158.052,111.074 157.778,111.922 157.379,112.678 C157.449,111.773 157.454,110.962 157.387,110.259 M152.213,109.742 C152.497,109.095 152.857,108.535 153.293,108.184 C153.615,107.925 153.947,107.796 154.294,107.796 C154.748,107.796 155.226,108.016 155.738,108.458 C155.973,108.661 156.146,108.97 156.273,109.362 C155.015,109.473 153.655,109.601 152.213,109.742 M156.467,110.339 C156.573,111.336 156.5,112.637 156.268,114.201 C155.703,114.761 155.007,115.202 154.16,115.48 C153.137,115.814 152.431,115.589 151.997,114.792 C151.46,113.803 151.474,112.204 151.855,110.778 C153.503,110.615 155.056,110.465 156.467,110.339 M151.118,115.268 C151.779,116.487 153,116.91 154.47,116.43 C155.044,116.242 155.557,115.993 156.015,115.693 C154.033,126.193 146.586,145.492 140.447,159.498 L118.8,159.498 C112.23,145.549 104.209,126.344 101.898,115.817 C102.306,116.062 102.753,116.269 103.247,116.43 C104.712,116.909 105.937,116.489 106.599,115.268 C106.832,114.839 106.982,114.327 107.064,113.774 C108.462,113.951 109.806,114.064 111.062,114.08 C111.308,114.083 111.56,114.084 111.819,114.084 C119.534,114.084 132.828,112.721 144.601,111.514 C146.755,111.293 148.837,111.079 150.795,110.883 C150.446,112.453 150.506,114.14 151.118,115.268 M100.29,112.568 L100.429,112.598 C100.437,112.697 100.443,112.789 100.454,112.89 C100.394,112.786 100.345,112.676 100.29,112.568 M113.337,208.055 C111.691,203.776 72.971,115.46 70.859,110.647 C74.894,106.655 84.85,108.983 94.507,111.252 C96.027,111.609 97.559,111.968 99.082,112.306 C99.477,113.296 100.015,114.2 100.759,114.931 C103.105,127.803 114.638,152.972 117.692,159.498 L117.652,159.498 C115.995,159.498 114.652,160.841 114.652,162.498 C114.652,164.155 115.995,165.498 117.652,165.498 L123.402,165.498 L123.402,212.273 C121.153,213.496 117.988,214.965 113.136,216.62 L112.972,216.681 C112.992,216.527 113.015,216.369 113.035,216.219 C113.562,212.398 113.945,209.637 113.337,208.055 M190.855,327.913 C190.193,329.008 189.89,329.991 189.788,330.852 C148.431,333.22 112.3,334.202 82.385,333.781 C81.455,333.011 80.116,332.522 78.402,332.365 L78.402,318.891 C85.265,319.089 108.286,319.695 133.342,319.695 C158.099,319.695 177.685,319.121 191.612,317.989 C191.759,320.16 191.807,323.97 190.855,327.913 M84.16,384.764 C83.955,384.231 83.686,383.764 83.329,383.43 L82.96,383.087 L82.473,382.958 C81.166,382.614 80.204,381.984 79.834,381.231 C79.734,381.028 79.683,380.819 79.678,380.607 C82.542,380.648 85.437,380.67 88.368,380.67 C117.169,380.67 148.769,378.799 176.962,377.129 C180.445,376.922 183.867,376.72 187.247,376.523 C187.089,378.387 187.199,380.821 187.837,382.501 C154.806,384.395 118.144,385.192 84.16,384.764 M147.132,387.233 C158.917,386.895 170.571,386.427 181.859,385.833 C181.288,387.93 180.105,391.105 177.924,392.961 C168.381,393.448 158.848,393.855 149.422,394.182 C148.205,391.82 147.434,388.81 147.132,387.233 M90.335,387.828 C94.303,387.86 98.292,387.881 102.312,387.881 C105.714,387.881 109.13,387.868 112.554,387.845 C112.855,389.406 113.263,392.818 111.71,395.057 C106.332,395.116 101.062,395.141 95.903,395.136 C93.904,392.984 91.479,389.688 90.335,387.828 M166.96,418.037 L165.352,419.001 L107.9,419.811 L106.171,418.604 C101.72,416.331 89.758,404.064 84.288,398.074 C88.382,398.118 92.564,398.139 96.834,398.139 C124.83,398.139 156.306,397.212 187.431,395.455 C187.463,395.796 187.504,396.092 187.547,396.308 C187.604,396.591 187.675,396.852 187.762,397.092 C184.828,401.219 170.359,417.033 166.96,418.037 M149.64,429.059 L149.64,428.955 L125.515,429.08 L125.515,429.208 C124.029,428.408 121.152,427.128 115.277,424.709 L160.248,424.074 C154.091,426.804 151.14,428.207 149.64,429.059 M110.035,377.36 C105.451,377.482 100.9,377.571 96.401,377.622 C94.654,375.78 92.531,372.977 91.218,371.005 C92.274,371.008 93.316,371.027 94.376,371.027 C99.955,371.027 105.574,370.975 111.203,370.884 C111.444,372.698 111.492,375.494 110.035,377.36 M181.594,373.85 C179.998,373.943 178.402,374.038 176.785,374.134 C167.651,374.675 158.154,375.236 148.516,375.749 C147.008,373.749 146.125,371.224 145.798,369.874 C158.447,369.361 170.833,368.727 182.618,368.066 C182.855,369.07 183.326,371.926 181.594,373.85 M79.526,364.772 C79.415,364.564 79.393,364.355 79.413,364.146 C84.372,364.217 89.531,364.252 94.868,364.252 C122.54,364.252 154.784,363.315 186.22,361.58 C186.151,362.641 186.302,363.793 186.653,364.834 C154.952,366.644 118.468,368.36 84.222,367.963 C84.177,367.818 84.129,367.692 84.08,367.59 L83.66,366.714 L82.71,366.503 C81.083,366.141 79.923,365.511 79.526,364.772 M110.466,361.158 C105.712,361.214 101.06,361.243 96.521,361.249 C95.113,359.786 93.436,357.657 92.131,355.827 C96.184,355.859 100.259,355.88 104.355,355.88 C106.654,355.88 108.958,355.873 111.263,355.863 C111.419,357.441 111.37,359.524 110.466,361.158 M183.605,353.875 C183.373,355.712 182.699,357.673 181.067,358.852 C170.113,359.426 159.102,359.902 148.25,360.274 C147.174,358.66 146.451,356.734 146.045,355.33 C158.831,354.994 171.448,354.508 183.605,353.875 M142.842,336.025 C156.367,335.565 170.632,334.922 185.603,334.092 C185.648,336.236 185.361,340.148 182.946,342.189 C171.065,342.822 158.276,343.319 145.138,343.671 C143.418,341.272 142.944,337.505 142.842,336.025 M88.554,336.85 C91.104,336.869 93.694,336.879 96.329,336.879 C100.222,336.879 104.218,336.855 108.292,336.813 C108.605,338.696 108.857,342.258 106.819,344.267 C102.544,344.285 98.299,344.286 94.089,344.271 C90.219,342.435 87.844,338.748 88.554,336.85 M81.158,349.596 C79.553,349.389 78.522,348.428 78.396,347.814 C78.349,347.583 78.468,347.352 78.645,347.142 C85.469,347.236 92.463,347.284 99.56,347.284 C129.398,347.284 160.864,346.463 187.289,344.955 C187.081,346.01 186.932,347.321 187.154,348.647 C187.031,350.592 185.468,350.717 183.678,350.869 C153.837,352.427 86.433,351.783 84.471,351.844 C83.757,350.591 82.612,349.784 81.158,349.596 M252.199,96.253 C232.42,27.282 168.636,2.246 130.589,2.246 C92.557,2.246 28.797,27.282 9.018,96.253 C-8.242,156.445 19.615,197.011 36.26,221.25 C38.839,225.006 41.064,228.249 42.846,231.149 C58.465,256.604 58.641,280.798 58.708,289.905 C58.714,290.758 58.72,291.463 58.737,292.008 C59.014,300.79 69.724,310.758 74.487,314.768 L74.402,314.764 L74.407,336.483 L76.555,336.324 C76.585,336.322 76.792,336.309 77.1,336.309 C78.833,336.309 79.723,336.701 79.846,336.848 C80.724,340.189 80.646,341.844 77.866,342.817 L77.514,342.981 C74.14,344.966 74.267,347.582 74.478,348.615 C74.992,351.127 77.528,353.161 80.646,353.563 C80.802,353.584 80.949,353.602 81.107,354.032 C81.622,355.43 81,357.768 80.555,358.438 C77.964,359.478 76.339,360.819 75.723,362.427 C75.194,363.805 75.296,365.351 76.002,366.666 C76.6,367.778 77.883,369.208 80.623,370.08 C80.757,371.366 80.658,373.624 80.397,374.67 C79.212,375.195 77.072,376.166 76.129,378.388 C75.487,379.899 75.528,381.534 76.243,382.993 C77.024,384.585 78.535,385.825 80.548,386.546 C80.743,387.409 80.8,389.022 80.651,389.807 C79.591,390.584 78.583,392.093 78.183,393.599 C77.736,395.28 78.035,396.892 79.022,398.136 C79.848,399.174 96.585,417.684 103.687,421.799 C103.705,423.162 104.126,424.479 105.705,425.094 C105.95,425.227 106.524,425.462 109.153,426.528 C112.544,427.904 120.995,431.332 123.554,432.675 C123.702,433.793 124.201,434.859 125.013,435.767 C127.146,438.151 131.314,439.36 137.402,439.36 L137.433,439.36 C143.748,439.261 148.063,437.923 150.26,435.38 C151.01,434.511 151.474,433.527 151.623,432.519 C153.949,431.213 161.379,427.942 164.369,426.627 C167.083,425.432 167.164,425.393 167.413,425.227 C169.049,424.159 169.558,422.586 169.603,421.134 C176.069,417.129 191.995,399.74 192.081,397.11 L192.093,395.6 L191.433,395.356 C191.316,394.594 191.352,393.25 191.508,392.487 C194.022,391.591 195.158,390.165 195.669,389.072 C196.317,387.691 196.301,386.122 195.625,384.65 C194.661,382.553 192.636,381.484 191.484,380.933 C191.214,379.953 191.083,377.852 191.187,376.636 C196.165,375.018 196.427,371.54 196.102,369.518 C195.557,366.134 192.184,364.773 190.785,364.271 C190.454,363.813 190.01,362.37 190.291,361.352 C190.375,361.029 190.699,360.789 190.699,360.789 L190.92,360.738 C194.065,360.299 196.578,358.258 197.031,355.775 C197.215,354.762 197.278,352.206 193.874,350.348 L193.525,350.198 C190.788,349.323 190.652,347.86 191.443,344.731 C191.819,344.572 192.789,344.531 193.275,344.511 C194.412,344.462 195.486,344.416 196.28,343.639 L196.525,343.35 C198.061,341.135 197.829,336.026 196.823,334.316 L196.426,333.664 L195.713,333.428 C195.204,333.259 194.066,332.664 193.8,331.904 C193.576,331.26 194,330.403 194.394,329.799 L194.576,329.519 L194.658,329.197 C196.316,322.666 195.531,316.561 195.394,315.63 C198.59,312.292 211.843,297.887 212.15,288.175 C212.194,286.791 211.962,284.948 211.641,282.398 C210.332,272.006 207.896,252.661 219.945,233.423 C221.377,231.135 223.128,228.514 224.982,225.74 C240.718,202.192 270.009,158.362 252.199,96.253 M128.652,311.32 L124.527,311.34 L124.527,257.82 L128.152,257.82 L128.652,311.32 z M138.522,311.34 L138.022,257.84 L141.609,257.82 L142.359,311.34 L138.522,311.34 z M131.839,228.08 C136.25,228.08 139.839,231.669 139.839,236.08 C139.839,240.491 136.25,244.08 131.839,244.08 C127.429,244.08 123.839,240.491 123.839,236.08 C123.839,231.669 127.429,228.08 131.839,228.08 M131.839,246.08 C137.353,246.08 141.839,241.594 141.839,236.08 C141.839,230.566 137.353,226.08 131.839,226.08 C126.326,226.08 121.839,230.566 121.839,236.08 C121.839,241.594 126.326,246.08 131.839,246.08" fill="#1A1919"/>
  </g>
</svg>
